<?xml version="1.0" encoding="UTF-8"?>
<svg xmlns="http://www.w3.org/2000/svg" height="512px" viewBox="-30 0 512 512.001" width="512px"><g><path d="m104.914062 98.460938 41.59375 22.746093 22.746094 41.59375c2.628906 4.808594 7.675782 7.800781 13.160156 7.800781 5.484376 0 10.53125-2.992187 13.160157-7.800781l22.746093-41.59375 41.59375-22.746093c4.808594-2.628907 7.800782-7.675782 7.800782-13.160157s-2.992188-10.527343-7.800782-13.160156l-41.59375-22.746094-22.746093-41.589843c-2.628907-4.8125-7.675781-7.804688-13.160157-7.804688-5.480468 0-10.527343 2.992188-13.160156 7.804688l-22.746094 41.589843-41.589843 22.746094c-4.8125 2.632813-7.804688 7.675781-7.804688 13.160156s2.992188 10.53125 7.800781 13.160157zm59.84375-24.855469c2.515626-1.375 4.585938-3.445313 5.960938-5.960938l11.695312-21.382812 11.695313 21.382812c1.375 2.515625 3.445313 4.585938 5.960937 5.960938l21.382813 11.695312-21.382813 11.695313c-2.515624 1.375-4.585937 3.445312-5.960937 5.964844l-11.695313 21.378906-11.695312-21.378906c-1.375-2.519532-3.445312-4.589844-5.960938-5.964844l-21.382812-11.695313zm0 0" data-original="#000000" class="active-path" data-old_color="#000000" fill="#EF3F60"/><path d="m444.027344 116.328125-31.261719-17.097656-17.097656-31.257813c-2.628907-4.8125-7.675781-7.804687-13.160157-7.804687-5.484374 0-10.527343 2.992187-13.160156 7.804687l-17.097656 31.257813-31.261719 17.097656c-4.8125 2.632813-7.804687 7.679687-7.804687 13.164063 0 5.480468 2.992187 10.527343 7.804687 13.160156l31.261719 17.097656 17.09375 31.261719c2.632812 4.808593 7.679688 7.800781 13.164062 7.800781 5.484376 0 10.527344-2.992188 13.160157-7.800781l17.097656-31.261719 31.261719-17.097656c4.8125-2.632813 7.800781-7.679688 7.800781-13.160156 0-5.484376-2.988281-10.53125-7.800781-13.164063zm-49.511719 19.207031c-2.515625 1.375-4.585937 3.445313-5.960937 5.964844l-6.046876 11.050781-6.042968-11.050781c-1.378906-2.519531-3.445313-4.589844-5.964844-5.964844l-11.050781-6.042968 11.050781-6.046876c2.515625-1.375 4.585938-3.445312 5.964844-5.960937l6.042968-11.054687 6.042969 11.054687c1.378907 2.515625 3.449219 4.585937 5.964844 5.960937l11.050781 6.046876zm0 0" data-original="#000000" class="active-path" data-old_color="#000000" fill="#EF3F60"/><path d="m418.394531 312.578125-15.539062-8.5-8.5-15.539063c-2.632813-4.808593-7.675781-7.800781-13.160157-7.800781-5.484374 0-10.53125 2.992188-13.160156 7.800781l-8.5 15.539063-15.539062 8.5c-4.808594 2.628906-7.800782 7.679687-7.800782 13.160156 0 5.484375 2.992188 10.53125 7.804688 13.160157l15.535156 8.5 8.5 15.535156c2.628906 4.8125 7.675782 7.804687 13.160156 7.804687 5.484376 0 10.527344-2.992187 13.160157-7.800781l8.5-15.539062 15.539062-8.5c4.808594-2.628907 7.800781-7.675782 7.800781-13.160157s-2.992187-10.53125-7.800781-13.160156zm0 0" data-original="#000000" class="active-path" data-old_color="#000000" fill="#EF3F60"/><path d="m330.765625 207.902344-26.667969-26.667969c-8.5-8.5-19.800781-13.179687-31.820312-13.179687-12.023438 0-23.324219 4.679687-31.820313 13.179687l-227.296875 227.296875c-17.546875 17.546875-17.546875 46.097656 0 63.640625l26.667969 26.667969c8.769531 8.773437 20.292969 13.160156 31.816406 13.160156 11.523438 0 23.050781-4.386719 31.820313-13.160156l227.296875-227.296875c8.5-8.5 13.183593-19.796875 13.183593-31.816407 0-12.023437-4.683593-23.324218-13.179687-31.824218zm-248.511719 269.722656c-2.835937 2.835938-6.601562 4.394531-10.609375 4.394531-4.003906 0-7.769531-1.558593-10.605469-4.394531l-26.667968-26.667969c-5.847656-5.847656-5.847656-15.363281 0-21.210937l189.023437-189.023438 47.882813 47.882813zm227.296875-227.296875-17.0625 17.0625-47.878906-47.878906 17.0625-17.0625c2.832031-2.832031 6.597656-4.394531 10.605469-4.394531 4.003906 0 7.769531 1.5625 10.605468 4.394531l26.667969 26.667969c2.832031 2.832031 4.394531 6.601562 4.394531 10.605468 0 4.007813-1.5625 7.773438-4.394531 10.605469zm0 0" data-original="#000000" class="active-path" data-old_color="#000000" fill="#EF3F60"/></g> </svg>